<svg version="1.1" xmlns="http://www.w3.org/2000/svg" xmlns:xlink="http://www.w3.org/1999/xlink" width="2106" height="902" viewBox="0 0 2106 902"><defs/><g transform="matrix(1,0,0,1,0,0)"><g><g><g><path fill="none" stroke="#d3d3d3" paint-order="fill stroke markers" d=" M 0 0 L 1200 0" stroke-miterlimit="10" stroke-opacity="0.8" stroke-dasharray="5"/></g><g><path fill="none" stroke="#d3d3d3" paint-order="fill stroke markers" d=" M 0 0 L 0 800" stroke-miterlimit="10" stroke-opacity="0.8" stroke-dasharray="5"/></g></g><g id="_E5F44AC4-52EC-4052-9213-CB98D701FE19" bpmn2nodeid="_E5F44AC4-52EC-4052-9213-CB98D701FE19" transform="matrix(1,0,0,1,1224,320)"><g><path fill="none" stroke="none"/></g><g transform="matrix(1,0,0,1,0,0)"><path fill="#ffffff" stroke="none" id="_E5F44AC4-52EC-4052-9213-CB98D701FE19?shapeType=BACKGROUND" paint-order="stroke fill markers" d=" M 2 0 L 152 0 L 152 0 A 2 2 0 0 1 154 2 L 154 100 L 154 100 A 2 2 0 0 1 152 102 L 2 102 L 2 102 A 2 2 0 0 1 0 100 L 0 2 L 0 2.0000000000000004 A 2 2 0 0 1 1.9999999999999996 0 Z"/></g><g transform="matrix(1,0,0,1,0,0)"><path fill="none" stroke="#000000" id="_E5F44AC4-52EC-4052-9213-CB98D701FE19?shapeType=BORDER&amp;renderType=STROKE" paint-order="fill stroke markers" d=" M 2 0 L 152 0 L 152 0 A 2 2 0 0 1 154 2 L 154 100 L 154 100 A 2 2 0 0 1 152 102 L 2 102 L 2 102 A 2 2 0 0 1 0 100 L 0 2 L 0 2.0000000000000004 A 2 2 0 0 1 1.9999999999999996 0 Z" stroke-miterlimit="10" stroke-width="1.5" stroke-dasharray=""/></g><g><g transform="matrix(1,0,0,1,0,0)"><g transform="matrix(1,0,0,1,10,10)"/></g></g><g transform="matrix(1,0,0,1,32.5703125,28.5)"><text fill="#000000" stroke="none" font-family="Open Sans" font-size="12pt" font-style="normal" font-weight="normal" text-decoration="normal" x="44.4296875" y="12" text-anchor="middle" dominant-baseline="alphabetic">   Manage    </text><text fill="#000000" stroke="none" font-family="Open Sans" font-size="12pt" font-style="normal" font-weight="normal" text-decoration="normal" x="44.4296875" y="27" text-anchor="middle" dominant-baseline="alphabetic">   Signing     </text><text fill="#000000" stroke="none" font-family="Open Sans" font-size="12pt" font-style="normal" font-weight="normal" text-decoration="normal" x="44.4296875" y="42" text-anchor="middle" dominant-baseline="alphabetic">Information</text></g></g><g transform="matrix(1,0,0,1,1224,320)"/><g id="_D017D3CA-4BB2-4470-860C-5D7BE37DF5BF" bpmn2nodeid="_D017D3CA-4BB2-4470-860C-5D7BE37DF5BF" transform="matrix(1,0,0,1,173,343)"><g><path fill="none" stroke="none"/></g><g transform="matrix(0.125,0,0,0.125,0,0)"><g transform="matrix(1,0,0,1,0,0)"><path fill="#e8fae6" stroke="none" id="_D017D3CA-4BB2-4470-860C-5D7BE37DF5BF?shapeType=BACKGROUND" paint-order="stroke fill markers" d=" M 0 0 M 444 224 C 444 263.9 434.2 300.8 414.4 334.5 C 394.7 368.2 368 394.9 334.4 414.5 C 300.79999999999995 434.1 263.9 444 224 444 C 184.10000000000002 444 147.2 434.2 113.5 414.4 C 79.8 394.7 53.1 368 33.5 334.4 C 13.899999999999999 300.79999999999995 4 263.9 4 224 C 4 184.10000000000002 13.8 147.2 33.6 113.5 C 53.400000000000006 79.80000000000001 80.1 53.1 113.6 33.5 C 147.1 13.899999999999999 184.1 4 224 4 C 263.9 4 300.8 13.8 334.5 33.6 C 368.2 53.400000000000006 394.9 80.1 414.5 113.6 C 434.1 147.1 444 184.1 444 224 Z"/></g><g><g transform="matrix(1,0,0,1,0,0)"><g transform="matrix(1,0,0,1,0,0)"><path fill="#4aa241" stroke="none" id="_D017D3CA-4BB2-4470-860C-5D7BE37DF5BF?shapeType=BORDER&amp;renderType=FILL" paint-order="stroke fill markers" d=" M 0 0 M 224 0 C 100.3 0 0 100.3 0 224 C 0 347.7 100.3 448 224 448 C 347.7 448 448 347.7 448 224 C 448 100.30000000000001 347.7 0 224 0 Z M 0 0 M 224 432 C 109.1 432 16 338.9 16 224 C 16 109.10000000000002 109.1 16 224 16 C 338.9 16 432 109.1 432 224 C 432 338.9 338.9 432 224 432 Z"/></g></g></g></g><g transform="matrix(1,0,0,1,-60.3515625,61)"><text fill="#000000" stroke="none" font-family="Open Sans" font-size="12pt" font-style="normal" font-weight="normal" text-decoration="normal" x="88.3515625" y="12" text-anchor="middle" dominant-baseline="alphabetic">Product offer signature </text><text fill="#000000" stroke="none" font-family="Open Sans" font-size="12pt" font-style="normal" font-weight="normal" text-decoration="normal" x="88.3515625" y="27" text-anchor="middle" dominant-baseline="alphabetic">            requested            </text></g></g><g transform="matrix(1,0,0,1,173,343)"/><g id="_77499AC7-A3DB-409B-A86D-DF89D21A657D" bpmn2nodeid="_77499AC7-A3DB-409B-A86D-DF89D21A657D" transform="matrix(1,0,0,1,323,320)"><g><path fill="none" stroke="none"/></g><g transform="matrix(1,0,0,1,0,0)"><path fill="#ffffff" stroke="none" id="_77499AC7-A3DB-409B-A86D-DF89D21A657D?shapeType=BACKGROUND" paint-order="stroke fill markers" d=" M 2 0 L 152 0 L 152 0 A 2 2 0 0 1 154 2 L 154 100 L 154 100 A 2 2 0 0 1 152 102 L 2 102 L 2 102 A 2 2 0 0 1 0 100 L 0 2 L 0 2.0000000000000004 A 2 2 0 0 1 1.9999999999999996 0 Z"/></g><g transform="matrix(1,0,0,1,0,0)"><path fill="none" stroke="#000000" id="_77499AC7-A3DB-409B-A86D-DF89D21A657D?shapeType=BORDER&amp;renderType=STROKE" paint-order="fill stroke markers" d=" M 2 0 L 152 0 L 152 0 A 2 2 0 0 1 154 2 L 154 100 L 154 100 A 2 2 0 0 1 152 102 L 2 102 L 2 102 A 2 2 0 0 1 0 100 L 0 2 L 0 2.0000000000000004 A 2 2 0 0 1 1.9999999999999996 0 Z" stroke-miterlimit="10" stroke-width="1.5" stroke-dasharray=""/></g><g><g transform="matrix(1,0,0,1,0,0)"><g transform="matrix(1,0,0,1,10,10)"/></g></g><g transform="matrix(1,0,0,1,31.73828125,28.5)"><text fill="#000000" stroke="none" font-family="Open Sans" font-size="12pt" font-style="normal" font-weight="normal" text-decoration="normal" x="45.26171875" y="12" text-anchor="middle" dominant-baseline="alphabetic">   Provide     </text><text fill="#000000" stroke="none" font-family="Open Sans" font-size="12pt" font-style="normal" font-weight="normal" text-decoration="normal" x="45.26171875" y="27" text-anchor="middle" dominant-baseline="alphabetic">Contractual </text><text fill="#000000" stroke="none" font-family="Open Sans" font-size="12pt" font-style="normal" font-weight="normal" text-decoration="normal" x="45.26171875" y="42" text-anchor="middle" dominant-baseline="alphabetic">Documents </text></g></g><g transform="matrix(1,0,0,1,323,320)"/><g id="_F6630C97-25C6-40A6-A454-2AB1617438F4" bpmn2nodeid="_F6630C97-25C6-40A6-A454-2AB1617438F4" transform="matrix(1,0,0,1,124,628)"><g><path fill="none" stroke="none"/></g><g transform="matrix(1,0,0,1,0,0)"><path fill="#fafafa" stroke="none" id="_F6630C97-25C6-40A6-A454-2AB1617438F4?shapeType=BACKGROUND" paint-order="stroke fill markers" d=" M 2 0 L 546 0 L 546 0 A 2 2 0 0 1 548 2 L 548 222 L 548 222 A 2 2 0 0 1 546 224 L 2 224 L 2 224 A 2 2 0 0 1 0 222 L 0 2 L 0 2.0000000000000004 A 2 2 0 0 1 1.9999999999999996 0 Z"/></g><g transform="matrix(1,0,0,1,0,0)"><path fill="none" stroke="#393f44" id="_F6630C97-25C6-40A6-A454-2AB1617438F4?shapeType=BORDER&amp;renderType=STROKE" paint-order="fill stroke markers" d=" M 2 0 L 546 0 L 546 0 A 2 2 0 0 1 548 2 L 548 222 L 548 222 A 2 2 0 0 1 546 224 L 2 224 L 2 224 A 2 2 0 0 1 0 222 L 0 2 L 0 2.0000000000000004 A 2 2 0 0 1 1.9999999999999996 0 Z" stroke-miterlimit="10" stroke-width="2" stroke-dasharray="2,2"/></g><g transform="matrix(1,0,0,1,-22.212499999999977,-1.7750000000000057)"><g transform="matrix(0.05,0,0,0.05,285,209)"><g transform="matrix(1,0,0,1,0,0)"><path fill="none" stroke="black" id="_F6630C97-25C6-40A6-A454-2AB1617438F4undefined" paint-order="fill stroke markers" d=" M 0 0 M 421.5 159.5 C 405.6 156.4 390.1 165.8 385.1 180.8 L 385.1 180.8 L 385.20000000000005 180.5 C 385.20000000000005 180.6 380.90000000000003 192.3 370.30000000000007 203.4 C 357.30000000000007 217 341.1000000000001 223.6 320.70000000000005 223.6 C 296.6 223.6 271.80000000000007 200.6 245.60000000000005 176.2 C 213.30000000000007 146.2 176.80000000000007 112.1 128.20000000000005 112.1 C 98.70000000000005 112.1 57.00000000000004 124.89999999999999 25.30000000000004 185.7 C 8.7 217.6 2.3 249.2 2 250.6 L 2 250.7 C 1.9 251.1 1.8 251.6 1.8 252 C 1.8 252.1 1.8 252.2 1.8 252.3 C 1.7 252.70000000000002 1.7 253.20000000000002 1.6 253.60000000000002 C 1.6 253.70000000000002 1.6 253.8 1.6 253.90000000000003 C 1.6 254.30000000000004 1.5 254.80000000000004 1.5 255.20000000000005 C 1.5 255.30000000000004 1.5 255.40000000000003 1.5 255.50000000000006 C 1.5 255.90000000000006 1.5 256.30000000000007 1.5 256.6000000000001 C 1.5 256.80000000000007 1.5 256.9000000000001 1.5 257.1000000000001 C 1.5 257.4000000000001 1.5 257.7000000000001 1.5 258.00000000000006 C 1.5 258.20000000000005 1.5 258.50000000000006 1.5 258.70000000000005 C 1.5 258.90000000000003 1.5 259.20000000000005 1.6 259.40000000000003 C 1.6 259.70000000000005 1.6 260.00000000000006 1.7000000000000002 260.3 C 1.7000000000000002 260.40000000000003 1.7000000000000002 260.6 1.8000000000000003 260.7 C 1.8000000000000003 261.09999999999997 1.9000000000000004 261.5 2.0000000000000004 261.9 L 2.0000000000000004 262 C 4.1000000000000005 274.7 13.9 285.5 27.3 288.1 C 29.400000000000002 288.5 31.5 288.70000000000005 33.6 288.70000000000005 C 47.2 288.70000000000005 59.5 280.00000000000006 63.900000000000006 267.00000000000006 C 64.5 265.6000000000001 68.80000000000001 255.60000000000005 77.60000000000001 245.80000000000007 C 90.9 231.10000000000008 107.5 224.00000000000006 128.4 224.00000000000006 C 151.8 224.00000000000006 176.3 246.80000000000007 202.2 270.90000000000003 C 234.7 301.20000000000005 271.6 335.5 320.9 335.5 C 345.5 335.5 367.79999999999995 327 387.4 310.2 C 401.4 298.2 413.79999999999995 281.9 424.09999999999997 261.9 C 440.59999999999997 229.99999999999997 446.79999999999995 198.29999999999998 446.99999999999994 196.89999999999998 C 450.3 179.6 438.9 162.8 421.5 159.5 Z" stroke-miterlimit="10" stroke-dasharray=""/></g></g></g><g transform="matrix(1,0,0,1,212.28515625,0)"><text fill="#000000" stroke="none" font-family="Open Sans" font-size="12pt" font-style="normal" font-weight="normal" text-decoration="normal" x="61.71484375" y="12" text-anchor="middle" dominant-baseline="alphabetic">Cancel signature</text></g><g id="_627BE974-74A2-42ED-8AE0-29DC2A0A422F" bpmn2nodeid="_627BE974-74A2-42ED-8AE0-29DC2A0A422F" transform="matrix(1,0,0,1,428,72)"><g><path fill="none" stroke="none"/></g><g transform="matrix(0.125,0,0,0.125,0,0)"><g transform="matrix(1,0,0,1,0,0)"><path fill="#fce7e7" stroke="none" id="_627BE974-74A2-42ED-8AE0-29DC2A0A422F?shapeType=BACKGROUND" paint-order="stroke fill markers" d=" M 0 0 M 444 224 C 444 263.9 434.2 300.8 414.4 334.5 C 394.7 368.2 368 394.9 334.4 414.5 C 300.79999999999995 434.1 263.9 444 224 444 C 184.10000000000002 444 147.2 434.2 113.5 414.4 C 79.8 394.7 53.1 368 33.5 334.4 C 13.899999999999999 300.79999999999995 4 263.9 4 224 C 4 184.10000000000002 13.8 147.2 33.6 113.5 C 53.400000000000006 79.80000000000001 80.1 53.1 113.6 33.5 C 147.1 13.899999999999999 184.1 4 224 4 C 263.9 4 300.8 13.8 334.5 33.6 C 368.2 53.400000000000006 394.9 80.1 414.5 113.6 C 434.1 147.1 444 184.1 444 224 Z"/></g><g><g transform="matrix(1,0,0,1,0,0)"><g transform="matrix(1,0,0,1,0,0)"><path fill="#a30000" stroke="none" id="_627BE974-74A2-42ED-8AE0-29DC2A0A422F?shapeType=BORDER&amp;renderType=FILL" paint-order="stroke fill markers" d=" M 0 0 M 224 0 C 100.3 0 0 100.3 0 224 C 0 347.7 100.3 448 224 448 C 347.7 448 448 347.7 448 224 C 448 100.30000000000001 347.7 0 224 0 Z M 0 0 M 224 400 C 126.8 400 48 321.2 48 224 C 48 126.80000000000001 126.8 48 224 48 C 321.2 48 400 126.8 400 224 C 400 321.2 321.2 400 224 400 Z"/></g></g></g><g><g transform="matrix(1,0,0,1,0,0)"><g transform="matrix(1,0,0,1,0,0)"><path fill="#a30000" stroke="none" id="_627BE974-74A2-42ED-8AE0-29DC2A0A422Fundefined" paint-order="stroke fill markers" d=" M 0 0 M 173.5 132.7 C 172.8 132.7 172.1 132.79999999999998 171.3 133.1 C 168 134.29999999999998 167.5 135.9 165.60000000000002 139.9 C 164.00000000000003 143.3 120.40000000000002 278.3 120.40000000000002 278.3 C 120.40000000000002 278.3 119.10000000000002 282.8 122.90000000000002 284.40000000000003 C 123.50000000000001 284.70000000000005 124.10000000000002 284.8 124.70000000000002 284.8 C 127.50000000000001 284.8 129.4 282.2 129.4 282.2 L 192.3 228.29999999999998 L 263.9 305.4 C 266 307.4 267.9 308.7 270.09999999999997 308.7 C 270.79999999999995 308.7 271.49999999999994 308.5 272.29999999999995 308.3 C 275.59999999999997 307.1 276.4 305.1 277.99999999999994 301.5 C 279.49999999999994 298.1 328.09999999999997 163.1 328.09999999999997 163.1 C 328.09999999999997 163.1 329.4 158.6 325.7 157 C 325.09999999999997 156.7 324.5 156.6 323.8 156.6 C 321 156.6 319.2 159.2 319.2 159.2 L 256.3 213.5 C 256.3 213.5 182.70000000000002 138.6 179.8 136 C 177.6 134 175.7 132.7 173.5 132.7 L 173.5 132.7 Z"/></g></g></g></g><g transform="matrix(1,0,0,1,-45.703125,61)"><text fill="#000000" stroke="none" font-family="Open Sans" font-size="12pt" font-style="normal" font-weight="normal" text-decoration="normal" x="73.703125" y="12" text-anchor="middle" dominant-baseline="alphabetic">Signature Cancelled</text></g></g><g id="_6BED1918-D8FA-44B4-BE14-8C719BEA39EA" bpmn2nodeid="_6BED1918-D8FA-44B4-BE14-8C719BEA39EA" transform="matrix(1,0,0,1,59,72)"><g><path fill="none" stroke="none"/></g><g transform="matrix(0.125,0,0,0.125,0,0)"><g transform="matrix(1,0,0,1,0,0)"><path fill="#e8fae6" stroke="none" id="_6BED1918-D8FA-44B4-BE14-8C719BEA39EA?shapeType=BACKGROUND" paint-order="stroke fill markers" d=" M 0 0 M 444 224 C 444 263.9 434.2 300.8 414.4 334.5 C 394.7 368.2 368 394.9 334.4 414.5 C 300.79999999999995 434.1 263.9 444 224 444 C 184.10000000000002 444 147.2 434.2 113.5 414.4 C 79.8 394.7 53.1 368 33.5 334.4 C 13.899999999999999 300.79999999999995 4 263.9 4 224 C 4 184.10000000000002 13.8 147.2 33.6 113.5 C 53.400000000000006 79.80000000000001 80.1 53.1 113.6 33.5 C 147.1 13.899999999999999 184.1 4 224 4 C 263.9 4 300.8 13.8 334.5 33.6 C 368.2 53.400000000000006 394.9 80.1 414.5 113.6 C 434.1 147.1 444 184.1 444 224 Z"/></g><g><g transform="matrix(1,0,0,1,0,0)"><g transform="matrix(1,0,0,1,0,0)"><path fill="#4aa241" stroke="none" id="_6BED1918-D8FA-44B4-BE14-8C719BEA39EA?shapeType=BORDER&amp;renderType=FILL" paint-order="stroke fill markers" d=" M 0 0 M 224 0 C 100.3 0 0 100.3 0 224 C 0 347.7 100.3 448 224 448 C 347.7 448 448 347.7 448 224 C 448 100.30000000000001 347.7 0 224 0 Z M 0 0 M 224 432 C 109.1 432 16 338.9 16 224 C 16 109.10000000000002 109.1 16 224 16 C 338.9 16 432 109.1 432 224 C 432 338.9 338.9 432 224 432 Z"/></g></g></g><g><g transform="matrix(1,0,0,1,0,0)"><g transform="matrix(1,0,0,1,0,0)"><path fill="#4aa241" stroke="none" id="_6BED1918-D8FA-44B4-BE14-8C719BEA39EAundefined" paint-order="stroke fill markers" d=" M 0 0 M 224.6 124.8 L 320.5 300.7 L 128.8 300.7 L 224.6 124.8 M 224.6 108.7 C 221.7 108.7 219 109.5 216.5 110.9 C 214 112.30000000000001 212.1 114.5 210.6 117 L 114.69999999999999 293 C 111.79999999999998 298.2 111.89999999999999 303.5 114.89999999999999 308.8 C 116.3 311.2 118.19999999999999 313.2 120.69999999999999 314.6 C 123.1 316 125.79999999999998 316.70000000000005 128.7 316.70000000000005 L 320.5 316.70000000000005 C 323.4 316.70000000000005 325.9 316.00000000000006 328.4 314.6 C 330.9 313.20000000000005 332.79999999999995 311.3 334.2 308.8 C 337.3 303.6 337.3 298.3 334.4 293 L 238.49999999999997 117 C 237.09999999999997 114.4 235.19999999999996 112.4 232.69999999999996 110.9 C 230.2 109.4 227.5 108.7 224.6 108.7 L 224.6 108.7 Z"/></g></g></g></g><g transform="matrix(1,0,0,1,-36.73046875,61)"><text fill="#000000" stroke="none" font-family="Open Sans" font-size="12pt" font-style="normal" font-weight="normal" text-decoration="normal" x="64.73046875" y="12" text-anchor="middle" dominant-baseline="alphabetic">Cancel requested</text></g></g></g><g transform="matrix(1,0,0,1,124,628)"/><g transform="matrix(1,0,0,1,552,700)"/><g transform="matrix(1,0,0,1,183,700)"/><g id="_73E464B0-8328-46E4-83C9-CF6E64C1AF13" bpmn2nodeid="_73E464B0-8328-46E4-83C9-CF6E64C1AF13" transform="matrix(1,0,0,1,1870,343)"><g><path fill="none" stroke="none"/></g><g transform="matrix(0.125,0,0,0.125,0,0)"><g transform="matrix(1,0,0,1,0,0)"><path fill="#fef4ea" stroke="none" id="_73E464B0-8328-46E4-83C9-CF6E64C1AF13?shapeType=BACKGROUND" paint-order="stroke fill markers" d=" M 0 0 M 224.4 4.3 C 216.4 4.3 208.4 7.3 202.3 13.399999999999999 L 13.5 202.2 C 1.3000000000000007 214.39999999999998 1.3000000000000007 234.2 13.5 246.39999999999998 L 202.2 435.09999999999997 C 208.29999999999998 441.2 216.39999999999998 444.2 224.29999999999998 444.2 C 232.2 444.2 240.29999999999998 441.2 246.39999999999998 435.09999999999997 L 435.09999999999997 246.39999999999998 C 447.29999999999995 234.2 447.29999999999995 214.39999999999998 435.09999999999997 202.2 L 246.5 13.4 C 240.4 7.3 232.4 4.3 224.4 4.3 L 224.4 4.3 Z"/></g><g><g transform="matrix(1,0,0,1,0,0)"><g transform="matrix(1,0,0,1,0,0)"><path fill="#ec7a08" stroke="none" id="_73E464B0-8328-46E4-83C9-CF6E64C1AF13?shapeType=BORDER&amp;renderType=FILL" paint-order="stroke fill markers" d=" M 0 0 M 20.8 212.7 L 213.3 20.2 C 219.60000000000002 13.899999999999999 229.70000000000002 13.899999999999999 235.9 20.2 L 428.4 212.7 C 434.7 219 434.7 229.1 428.4 235.29999999999998 L 235.9 427.8 C 229.6 434.1 219.5 434.1 213.3 427.8 L 20.8 235.3 C 14.5 229.1 14.5 218.9 20.8 212.7 L 20.8 212.7 Z M 0 0 M 0 224 C 0 232.1 3.1 240.3 9.3 246.5 L 201.5 438.7 C 213.9 451.09999999999997 234.1 451.09999999999997 246.5 438.7 L 438.7 246.5 C 444.9 240.3 448 232.1 448 224 C 448 215.9 444.9 207.7 438.7 201.5 L 246.5 9.3 C 234.1 -3.0999999999999996 213.9 -3.0999999999999996 201.5 9.3 L 9.3 201.5 C 3.1 207.7 0 215.9 0 224 L 0 224 Z"/></g></g></g><g><g transform="matrix(1,0,0,1,0,0)"><g transform="matrix(1,0,0,1,0,0)"><path fill="#ec7a08" stroke="none" id="_73E464B0-8328-46E4-83C9-CF6E64C1AF13undefined" paint-order="stroke fill markers" d=" M 0 0 M 298.2 269.2 C 298.2 272.59999999999997 297.09999999999997 275.3 294.7 277.7 L 277.7 294.7 C 275.3 297.09999999999997 272.59999999999997 298.2 269.2 298.2 C 265.8 298.2 263.09999999999997 297.09999999999997 260.7 294.7 L 224 258 L 187.2 294.8 C 184.79999999999998 297.2 182.1 298.3 178.7 298.3 C 175.29999999999998 298.3 172.6 297.2 170.2 294.8 L 153.2 277.8 C 150.79999999999998 275.40000000000003 149.7 272.7 149.7 269.3 C 149.7 265.90000000000003 150.79999999999998 263.2 153.2 260.8 L 190 224 L 153.2 187.2 C 150.79999999999998 184.79999999999998 149.7 182 149.7 178.7 C 149.7 175.29999999999998 150.79999999999998 172.5 153.2 170.2 L 170.2 153.2 C 172.6 150.79999999999998 175.29999999999998 149.7 178.7 149.7 C 182.1 149.7 184.79999999999998 150.79999999999998 187.2 153.2 L 224 190 L 260.8 153.2 C 263.2 150.79999999999998 265.90000000000003 149.7 269.3 149.7 C 272.7 149.7 275.40000000000003 150.79999999999998 277.8 153.2 L 294.8 170.2 C 297.2 172.5 298.3 175.29999999999998 298.3 178.7 C 298.3 182 297.2 184.79999999999998 294.8 187.2 L 258 224 L 294.8 260.8 C 297.1 263.1 298.2 265.9 298.2 269.2 Z"/></g></g></g></g><g transform="matrix(1,0,0,1,28,61)"/></g><g transform="matrix(1,0,0,1,1870,343)"/><g id="_7C3F7253-DC74-4F75-A094-C20160FA3E3D" bpmn2nodeid="_7C3F7253-DC74-4F75-A094-C20160FA3E3D" transform="matrix(1,0,0,1,1453,343)"><g><path fill="none" stroke="none"/></g><g transform="matrix(0.125,0,0,0.125,0,0)"><g transform="matrix(1,0,0,1,0,0)"><path fill="#fef4ea" stroke="none" id="_7C3F7253-DC74-4F75-A094-C20160FA3E3D?shapeType=BACKGROUND" paint-order="stroke fill markers" d=" M 0 0 M 224.4 4.3 C 216.4 4.3 208.4 7.3 202.3 13.399999999999999 L 13.5 202.2 C 1.3000000000000007 214.39999999999998 1.3000000000000007 234.2 13.5 246.39999999999998 L 202.2 435.09999999999997 C 208.29999999999998 441.2 216.39999999999998 444.2 224.29999999999998 444.2 C 232.2 444.2 240.29999999999998 441.2 246.39999999999998 435.09999999999997 L 435.09999999999997 246.39999999999998 C 447.29999999999995 234.2 447.29999999999995 214.39999999999998 435.09999999999997 202.2 L 246.5 13.4 C 240.4 7.3 232.4 4.3 224.4 4.3 L 224.4 4.3 Z"/></g><g><g transform="matrix(1,0,0,1,0,0)"><g transform="matrix(1,0,0,1,0,0)"><path fill="#ec7a08" stroke="none" id="_7C3F7253-DC74-4F75-A094-C20160FA3E3D?shapeType=BORDER&amp;renderType=FILL" paint-order="stroke fill markers" d=" M 0 0 M 20.8 212.7 L 213.3 20.2 C 219.60000000000002 13.899999999999999 229.70000000000002 13.899999999999999 235.9 20.2 L 428.4 212.7 C 434.7 219 434.7 229.1 428.4 235.29999999999998 L 235.9 427.8 C 229.6 434.1 219.5 434.1 213.3 427.8 L 20.8 235.3 C 14.5 229.1 14.5 218.9 20.8 212.7 L 20.8 212.7 Z M 0 0 M 0 224 C 0 232.1 3.1 240.3 9.3 246.5 L 201.5 438.7 C 213.9 451.09999999999997 234.1 451.09999999999997 246.5 438.7 L 438.7 246.5 C 444.9 240.3 448 232.1 448 224 C 448 215.9 444.9 207.7 438.7 201.5 L 246.5 9.3 C 234.1 -3.0999999999999996 213.9 -3.0999999999999996 201.5 9.3 L 9.3 201.5 C 3.1 207.7 0 215.9 0 224 L 0 224 Z"/></g></g></g><g><g transform="matrix(1,0,0,1,0,0)"><g transform="matrix(1,0,0,1,0,0)"><path fill="#ec7a08" stroke="none" id="_7C3F7253-DC74-4F75-A094-C20160FA3E3Dundefined" paint-order="stroke fill markers" d=" M 0 0 M 298.2 269.2 C 298.2 272.59999999999997 297.09999999999997 275.3 294.7 277.7 L 277.7 294.7 C 275.3 297.09999999999997 272.59999999999997 298.2 269.2 298.2 C 265.8 298.2 263.09999999999997 297.09999999999997 260.7 294.7 L 224 258 L 187.2 294.8 C 184.79999999999998 297.2 182.1 298.3 178.7 298.3 C 175.29999999999998 298.3 172.6 297.2 170.2 294.8 L 153.2 277.8 C 150.79999999999998 275.40000000000003 149.7 272.7 149.7 269.3 C 149.7 265.90000000000003 150.79999999999998 263.2 153.2 260.8 L 190 224 L 153.2 187.2 C 150.79999999999998 184.79999999999998 149.7 182 149.7 178.7 C 149.7 175.29999999999998 150.79999999999998 172.5 153.2 170.2 L 170.2 153.2 C 172.6 150.79999999999998 175.29999999999998 149.7 178.7 149.7 C 182.1 149.7 184.79999999999998 150.79999999999998 187.2 153.2 L 224 190 L 260.8 153.2 C 263.2 150.79999999999998 265.90000000000003 149.7 269.3 149.7 C 272.7 149.7 275.40000000000003 150.79999999999998 277.8 153.2 L 294.8 170.2 C 297.2 172.5 298.3 175.29999999999998 298.3 178.7 C 298.3 182 297.2 184.79999999999998 294.8 187.2 L 258 224 L 294.8 260.8 C 297.1 263.1 298.2 265.9 298.2 269.2 Z"/></g></g></g></g><g transform="matrix(1,0,0,1,-54.03125,61)"><text fill="#000000" stroke="none" font-family="Open Sans" font-size="12pt" font-style="normal" font-weight="normal" text-decoration="normal" x="82.03125" y="12" text-anchor="middle" dominant-baseline="alphabetic">Type of the signature?</text></g></g><g transform="matrix(1,0,0,1,1453,343)"/><g id="_ED2ACF61-0096-4944-AC55-0B79B417F1FC" bpmn2nodeid="_ED2ACF61-0096-4944-AC55-0B79B417F1FC" transform="matrix(1,0,0,1,2000,343)"><g><path fill="none" stroke="none"/></g><g transform="matrix(0.125,0,0,0.125,0,0)"><g transform="matrix(1,0,0,1,0,0)"><path fill="#fce7e7" stroke="none" id="_ED2ACF61-0096-4944-AC55-0B79B417F1FC?shapeType=BACKGROUND" paint-order="stroke fill markers" d=" M 0 0 M 444 224 C 444 263.9 434.2 300.8 414.4 334.5 C 394.7 368.2 368 394.9 334.4 414.5 C 300.79999999999995 434.1 263.9 444 224 444 C 184.10000000000002 444 147.2 434.2 113.5 414.4 C 79.8 394.7 53.1 368 33.5 334.4 C 13.899999999999999 300.79999999999995 4 263.9 4 224 C 4 184.10000000000002 13.8 147.2 33.6 113.5 C 53.400000000000006 79.80000000000001 80.1 53.1 113.6 33.5 C 147.1 13.899999999999999 184.1 4 224 4 C 263.9 4 300.8 13.8 334.5 33.6 C 368.2 53.400000000000006 394.9 80.1 414.5 113.6 C 434.1 147.1 444 184.1 444 224 Z"/></g><g><g transform="matrix(1,0,0,1,0,0)"><g transform="matrix(1,0,0,1,0,0)"><path fill="#a30000" stroke="none" id="_ED2ACF61-0096-4944-AC55-0B79B417F1FC?shapeType=BORDER&amp;renderType=FILL" paint-order="stroke fill markers" d=" M 0 0 M 224 0 C 100.3 0 0 100.3 0 224 C 0 347.7 100.3 448 224 448 C 347.7 448 448 347.7 448 224 C 448 100.30000000000001 347.7 0 224 0 Z M 0 0 M 224 400 C 126.8 400 48 321.2 48 224 C 48 126.80000000000001 126.8 48 224 48 C 321.2 48 400 126.8 400 224 C 400 321.2 321.2 400 224 400 Z"/></g></g></g></g><g transform="matrix(1,0,0,1,-49.2734375,61)"><text fill="#000000" stroke="none" font-family="Open Sans" font-size="12pt" font-style="normal" font-weight="normal" text-decoration="normal" x="77.2734375" y="12" text-anchor="middle" dominant-baseline="alphabetic">Signature completed</text></g></g><g transform="matrix(1,0,0,1,2000,343)"/><g id="_3303F08C-5C23-4EDF-9B04-74021CC31BF4" bpmn2nodeid="_3303F08C-5C23-4EDF-9B04-74021CC31BF4" transform="matrix(1,0,0,1,535.5,187)"><g><path fill="none" stroke="none"/></g><g transform="matrix(1,0,0,1,0,0)"><path fill="#ffffff" stroke="none" id="_3303F08C-5C23-4EDF-9B04-74021CC31BF4?shapeType=BACKGROUND" paint-order="stroke fill markers" d=" M 2 0 L 618.5 0 L 618.5 0 A 2 2 0 0 1 620.5 2 L 620.5 371 L 620.5 371 A 2 2 0 0 1 618.5 373 L 2 373 L 2 373 A 2 2 0 0 1 0 371 L 0 2 L 0 2.0000000000000004 A 2 2 0 0 1 1.9999999999999996 0 Z"/></g><g transform="matrix(1,0,0,1,0,0)"><path fill="none" stroke="#393f44" id="_3303F08C-5C23-4EDF-9B04-74021CC31BF4?shapeType=BORDER&amp;renderType=STROKE" paint-order="fill stroke markers" d=" M 2 0 L 618.5 0 L 618.5 0 A 2 2 0 0 1 620.5 2 L 620.5 371 L 620.5 371 A 2 2 0 0 1 618.5 373 L 2 373 L 2 373 A 2 2 0 0 1 0 371 L 0 2 L 0 2.0000000000000004 A 2 2 0 0 1 1.9999999999999996 0 Z" stroke-miterlimit="10" stroke-width="1.5" stroke-dasharray=""/></g><g transform="matrix(1,0,0,1,243.83203125,0)"><text fill="#000000" stroke="none" font-family="Open Sans" font-size="12pt" font-style="normal" font-weight="normal" text-decoration="normal" x="66.41796875" y="12" text-anchor="middle" dominant-baseline="alphabetic">Wait for signature</text></g><g id="_1CCE5502-6AD3-4BEB-9E72-88A468707FB9" bpmn2nodeid="_1CCE5502-6AD3-4BEB-9E72-88A468707FB9" transform="matrix(1,0,0,1,295.5,260)"><g><path fill="none" stroke="none"/></g><g transform="matrix(0.125,0,0,0.125,0,0)"><g transform="matrix(1,0,0,1,0,0)"><path fill="#fbefcf" stroke="none" id="_1CCE5502-6AD3-4BEB-9E72-88A468707FB9?shapeType=BACKGROUND" paint-order="stroke fill markers" d=" M 0 0 M 444 224 C 444 263.9 434.2 300.8 414.4 334.5 C 394.7 368.2 368 394.9 334.4 414.5 C 300.79999999999995 434.1 263.9 444 224 444 C 184.10000000000002 444 147.2 434.2 113.5 414.4 C 79.8 394.7 53.1 368 33.5 334.4 C 13.899999999999999 300.79999999999995 4 263.9 4 224 C 4 184.10000000000002 13.8 147.2 33.6 113.5 C 53.400000000000006 79.80000000000001 80.1 53.1 113.6 33.5 C 147.1 13.899999999999999 184.1 4 224 4 C 263.9 4 300.8 13.8 334.5 33.6 C 368.2 53.400000000000006 394.9 80.1 414.5 113.6 C 434.1 147.1 444 184.1 444 224 Z"/></g><g><g transform="matrix(1,0,0,1,0,0)"><g transform="matrix(1,0,0,1,0,0)"><path fill="#e5a000" stroke="none" id="_1CCE5502-6AD3-4BEB-9E72-88A468707FB9?shapeType=BORDER&amp;renderType=FILL" paint-order="stroke fill markers" d=" M 0 0 M 224 408 C 122.5 408 40 325.5 40 224 C 40 122.5 122.5 40 224 40 C 325.5 40 408 122.5 408 224 C 408 325.5 325.5 408 224 408 Z M 0 0 M 224 56 C 131.4 56 56 131.4 56 224 C 56 316.6 131.4 392 224 392 C 316.6 392 392 316.6 392 224 C 392 131.39999999999998 316.6 56 224 56 Z M 0 0 M 224 16 C 252.1 16 279.3 21.5 305 32.3 C 329.8 42.8 352 57.8 371.1 76.9 C 390.20000000000005 96.00000000000001 405.20000000000005 118.30000000000001 415.70000000000005 143 C 426.50000000000006 168.6 432.00000000000006 195.9 432.00000000000006 224 C 432.00000000000006 252.1 426.50000000000006 279.3 415.70000000000005 305 C 405.20000000000005 329.8 390.20000000000005 352 371.1 371.1 C 352 390.20000000000005 329.70000000000005 405.20000000000005 305 415.70000000000005 C 279.4 426.50000000000006 252.1 432.00000000000006 224 432.00000000000006 C 195.9 432.00000000000006 168.7 426.50000000000006 143 415.70000000000005 C 118.2 405.20000000000005 96 390.20000000000005 76.9 371.1 C 57.80000000000001 352 42.8 329.7 32.3 305 C 21.5 279.3 16 252.1 16 224 C 16 195.9 21.5 168.7 32.3 143 C 42.8 118.2 57.8 96 76.9 76.9 C 96.00000000000001 57.80000000000001 118.30000000000001 42.800000000000004 143 32.300000000000004 C 168.7 21.5 195.9 16 224 16 M 224 0 C 100.3 0 0 100.3 0 224 C 0 347.7 100.3 448 224 448 C 347.7 448 448 347.7 448 224 C 448 100.30000000000001 347.7 0 224 0 L 224 0 Z"/></g></g></g><g><g transform="matrix(1,0,0,1,0,0)"><g transform="matrix(1,0,0,1,0,0)"><path fill="#e5a000" stroke="none" id="_1CCE5502-6AD3-4BEB-9E72-88A468707FB9undefined" paint-order="stroke fill markers" d=" M 0 0 M 224.6 124.8 L 320.5 300.7 L 128.8 300.7 L 224.6 124.8 M 224.6 108.7 C 221.7 108.7 219 109.5 216.5 110.9 C 214 112.30000000000001 212.1 114.5 210.6 117 L 114.69999999999999 293 C 111.79999999999998 298.2 111.89999999999999 303.5 114.89999999999999 308.8 C 116.3 311.2 118.19999999999999 313.2 120.69999999999999 314.6 C 123.1 316 125.79999999999998 316.70000000000005 128.7 316.70000000000005 L 320.5 316.70000000000005 C 323.4 316.70000000000005 325.9 316.00000000000006 328.4 314.6 C 330.9 313.20000000000005 332.79999999999995 311.3 334.2 308.8 C 337.3 303.6 337.3 298.3 334.4 293 L 238.49999999999997 117 C 237.09999999999997 114.4 235.19999999999996 112.4 232.69999999999996 110.9 C 230.2 109.4 227.5 108.7 224.6 108.7 L 224.6 108.7 Z"/></g></g></g></g><g transform="matrix(1,0,0,1,-74.43359375,61)"><text fill="#000000" stroke="none" font-family="Open Sans" font-size="12pt" font-style="normal" font-weight="normal" text-decoration="normal" x="102.43359375" y="12" text-anchor="middle" dominant-baseline="alphabetic">Documents Signed by GEX2</text></g></g><g id="_B1DEAFF9-89DB-418E-A7BC-5272C3902D91" bpmn2nodeid="_B1DEAFF9-89DB-418E-A7BC-5272C3902D91" transform="matrix(1,0,0,1,246.5,38)"><g><path fill="none" stroke="none"/></g><g transform="matrix(1,0,0,1,0,0)"><path fill="#ffffff" stroke="none" id="_B1DEAFF9-89DB-418E-A7BC-5272C3902D91?shapeType=BACKGROUND" paint-order="stroke fill markers" d=" M 2 0 L 152 0 L 152 0 A 2 2 0 0 1 154 2 L 154 100 L 154 100 A 2 2 0 0 1 152 102 L 2 102 L 2 102 A 2 2 0 0 1 0 100 L 0 2 L 0 2.0000000000000004 A 2 2 0 0 1 1.9999999999999996 0 Z"/></g><g transform="matrix(1,0,0,1,0,0)"><path fill="none" stroke="#000000" id="_B1DEAFF9-89DB-418E-A7BC-5272C3902D91?shapeType=BORDER&amp;renderType=STROKE" paint-order="fill stroke markers" d=" M 2 0 L 152 0 L 152 0 A 2 2 0 0 1 154 2 L 154 100 L 154 100 A 2 2 0 0 1 152 102 L 2 102 L 2 102 A 2 2 0 0 1 0 100 L 0 2 L 0 2.0000000000000004 A 2 2 0 0 1 1.9999999999999996 0 Z" stroke-miterlimit="10" stroke-width="1.5" stroke-dasharray=""/></g><g><g transform="matrix(0.06,0,0,0.06,9.4,9.4)"><g transform="matrix(1,0,0,1,0,0)"><path fill="#393f44" stroke="none" id="_B1DEAFF9-89DB-418E-A7BC-5272C3902D91undefined" paint-order="stroke fill markers" d=" M 0 0 M 16 445.2101 C 16 440.86867 18.784312 431.12906000000004 22.001325 424.21728 C 35.767643 394.6402 77.282944 359.28049 129 333.08362 C 144.51625 325.22398 157.34689 319.96394 167.80739 317.17416 C 171.93153 316.07426 175.72913 314.41389999999996 176.5251 313.36265 C 178.89361 310.23449999999997 180.91404 302.90781 181.72673 294.5 L 182.5 286.5 L 178.50715 283.45457 C 166.30327 274.14645 154.2837 251.67767 148.03953 226.5 C 145.61086 216.70715 145.05603000000002 215.46246 142.98364 215.1579 C 141.70332000000002 214.96974 138.08302 212.24302 134.93852 209.09852 C 123.23314 197.39314000000002 116.89146000000001 177.37556 121.43982000000001 166.48978 C 123.00204000000001 162.75088 128.15457 159.00970999999998 131.75 159.00374 C 134.44781 158.99974 134.47062 158.60296 132.91375 138.78796 C 130.92658 113.4962 134.27903 92.26542699999999 143.13217 74.075676 C 152.23162 55.379835 167.56889 42.88208 189.04934 36.659507000000005 C 210.20334 30.531504000000005 237.79666 30.531504000000005 258.95065999999997 36.659507000000005 C 300.04166 48.562968000000005 318.95842 83.80634 314.95504999999997 141 C 314.31982999999997 150.075 313.62402 157.78816 313.4088 158.14035 C 313.19359 158.49254000000002 314.57532 159.07295000000002 316.47931 159.43014000000002 C 328.92867 161.76565000000002 330.98619 177.01772000000003 321.49638 196.62092 C 316.90319 206.10912000000002 309.35724 214.50797 304.81732 215.18517000000003 C 303.02259 215.45289000000002 302.2931 217.14618000000002 299.94277999999997 226.50000000000003 C 296.65948 239.56693 294.47402 245.30522000000002 287.94764 257.99534000000006 C 282.49071999999995 268.60596000000004 273.03466 281.10922000000005 268.10756999999995 284.2288300000001 L 264.87062 286.27832000000006 L 265.51815999999997 292.88916000000006 C 266.34490999999997 301.32961000000006 268.63948999999997 309.8706000000001 270.87735999999995 312.83742000000007 C 272.06735 314.4150200000001 275.00244999999995 315.78963000000005 280.0630699999999 317.13941000000005 C 291.06929999999994 320.0750300000001 303.61700999999994 325.27420000000006 320.99999999999994 334.10171 C 369.81470999999993 358.89104000000003 410.84810999999996 393.75797 425.03216 422.5 C 429.06985999999995 430.68183 432 440.23198 432 445.2101 L 432 448 L 224 448 L 16 448 L 16 445.2101 Z"/></g></g></g><g transform="matrix(1,0,0,1,4.039999999999992,13.680000000000007)"><g transform="matrix(0.04,0,0,0.04,63.36,69.12)"><g transform="matrix(1,0,0,1,0,0)"><path fill="none" stroke="none"/></g><g transform="matrix(1,0,0,1,0,0)"><path fill="none" stroke="none"/></g></g></g><g transform="matrix(1,0,0,1,35,28.5)"><text fill="#000000" stroke="none" font-family="Open Sans" font-size="12pt" font-style="normal" font-weight="normal" text-decoration="normal" x="45.26171875" y="12" text-anchor="middle" dominant-baseline="alphabetic">      Sign        </text><text fill="#000000" stroke="none" font-family="Open Sans" font-size="12pt" font-style="normal" font-weight="normal" text-decoration="normal" x="45.26171875" y="27" text-anchor="middle" dominant-baseline="alphabetic">Contractual </text><text fill="#000000" stroke="none" font-family="Open Sans" font-size="12pt" font-style="normal" font-weight="normal" text-decoration="normal" x="45.26171875" y="42" text-anchor="middle" dominant-baseline="alphabetic">Documents </text></g></g><g id="_79E4B6CA-264C-43BF-A9CD-4487E2607431" bpmn2nodeid="_79E4B6CA-264C-43BF-A9CD-4487E2607431" transform="matrix(1,0,0,1,464.5,61)"><g><path fill="none" stroke="none"/></g><g transform="matrix(0.125,0,0,0.125,0,0)"><g transform="matrix(1,0,0,1,0,0)"><path fill="#fce7e7" stroke="none" id="_79E4B6CA-264C-43BF-A9CD-4487E2607431?shapeType=BACKGROUND" paint-order="stroke fill markers" d=" M 0 0 M 444 224 C 444 263.9 434.2 300.8 414.4 334.5 C 394.7 368.2 368 394.9 334.4 414.5 C 300.79999999999995 434.1 263.9 444 224 444 C 184.10000000000002 444 147.2 434.2 113.5 414.4 C 79.8 394.7 53.1 368 33.5 334.4 C 13.899999999999999 300.79999999999995 4 263.9 4 224 C 4 184.10000000000002 13.8 147.2 33.6 113.5 C 53.400000000000006 79.80000000000001 80.1 53.1 113.6 33.5 C 147.1 13.899999999999999 184.1 4 224 4 C 263.9 4 300.8 13.8 334.5 33.6 C 368.2 53.400000000000006 394.9 80.1 414.5 113.6 C 434.1 147.1 444 184.1 444 224 Z"/></g><g><g transform="matrix(1,0,0,1,0,0)"><g transform="matrix(1,0,0,1,0,0)"><path fill="#a30000" stroke="none" id="_79E4B6CA-264C-43BF-A9CD-4487E2607431?shapeType=BORDER&amp;renderType=FILL" paint-order="stroke fill markers" d=" M 0 0 M 224 0 C 100.3 0 0 100.3 0 224 C 0 347.7 100.3 448 224 448 C 347.7 448 448 347.7 448 224 C 448 100.30000000000001 347.7 0 224 0 Z M 0 0 M 224 400 C 126.8 400 48 321.2 48 224 C 48 126.80000000000001 126.8 48 224 48 C 321.2 48 400 126.8 400 224 C 400 321.2 321.2 400 224 400 Z"/></g></g></g><g><g transform="matrix(1,0,0,1,0,0)"><g transform="matrix(1,0,0,1,0,0)"><path fill="#a30000" stroke="none" id="_79E4B6CA-264C-43BF-A9CD-4487E2607431undefined" paint-order="stroke fill markers" d=" M 0 0 M 320.2 220.7 C 320.2 238.1 315.9 254.2 307.3 268.9 C 298.7 283.59999999999997 287.1 295.29999999999995 272.40000000000003 303.79999999999995 C 257.70000000000005 312.4 241.60000000000002 316.69999999999993 224.20000000000005 316.69999999999993 C 206.80000000000007 316.69999999999993 190.70000000000005 312.3999999999999 176.00000000000006 303.79999999999995 C 161.30000000000007 295.19999999999993 149.70000000000005 283.59999999999997 141.10000000000005 268.9 C 132.50000000000006 254.2 128.30000000000004 238.09999999999997 128.30000000000004 220.7 C 128.30000000000004 203.3 132.60000000000005 187.2 141.20000000000005 172.5 C 149.80000000000004 157.8 161.40000000000003 146.1 176.10000000000005 137.5 C 190.80000000000004 128.9 206.90000000000006 124.7 224.30000000000007 124.7 C 241.70000000000007 124.7 257.80000000000007 129 272.50000000000006 137.6 C 287.20000000000005 146.2 298.90000000000003 157.9 307.40000000000003 172.5 C 316 187.2 320.2 203.3 320.2 220.7 Z"/></g></g></g></g><g transform="matrix(1,0,0,1,28,61)"/></g><g id="_957E7202-2F91-40B7-A73D-D6AF1222A401" bpmn2nodeid="_957E7202-2F91-40B7-A73D-D6AF1222A401" transform="matrix(1,0,0,1,32.5,156.06173706054688)"><g><path fill="none" stroke="none"/></g><g transform="matrix(0.125,0,0,0.125,0,0)"><g transform="matrix(1,0,0,1,0,0)"><path fill="#e8fae6" stroke="none" id="_957E7202-2F91-40B7-A73D-D6AF1222A401?shapeType=BACKGROUND" paint-order="stroke fill markers" d=" M 0 0 M 444 224 C 444 263.9 434.2 300.8 414.4 334.5 C 394.7 368.2 368 394.9 334.4 414.5 C 300.79999999999995 434.1 263.9 444 224 444 C 184.10000000000002 444 147.2 434.2 113.5 414.4 C 79.8 394.7 53.1 368 33.5 334.4 C 13.899999999999999 300.79999999999995 4 263.9 4 224 C 4 184.10000000000002 13.8 147.2 33.6 113.5 C 53.400000000000006 79.80000000000001 80.1 53.1 113.6 33.5 C 147.1 13.899999999999999 184.1 4 224 4 C 263.9 4 300.8 13.8 334.5 33.6 C 368.2 53.400000000000006 394.9 80.1 414.5 113.6 C 434.1 147.1 444 184.1 444 224 Z"/></g><g><g transform="matrix(1,0,0,1,0,0)"><g transform="matrix(1,0,0,1,0,0)"><path fill="#4aa241" stroke="none" id="_957E7202-2F91-40B7-A73D-D6AF1222A401?shapeType=BORDER&amp;renderType=FILL" paint-order="stroke fill markers" d=" M 0 0 M 224 0 C 100.3 0 0 100.3 0 224 C 0 347.7 100.3 448 224 448 C 347.7 448 448 347.7 448 224 C 448 100.30000000000001 347.7 0 224 0 Z M 0 0 M 224 432 C 109.1 432 16 338.9 16 224 C 16 109.10000000000002 109.1 16 224 16 C 338.9 16 432 109.1 432 224 C 432 338.9 338.9 432 224 432 Z"/></g></g></g></g><g transform="matrix(1,0,0,1,28,61)"/></g><g id="_7A8CC827-96C0-4721-A8D2-538ADEA67BB3" bpmn2nodeid="_7A8CC827-96C0-4721-A8D2-538ADEA67BB3" transform="matrix(1,0,0,1,464.5,260)"><g><path fill="none" stroke="none"/></g><g transform="matrix(0.125,0,0,0.125,0,0)"><g transform="matrix(1,0,0,1,0,0)"><path fill="#fce7e7" stroke="none" id="_7A8CC827-96C0-4721-A8D2-538ADEA67BB3?shapeType=BACKGROUND" paint-order="stroke fill markers" d=" M 0 0 M 444 224 C 444 263.9 434.2 300.8 414.4 334.5 C 394.7 368.2 368 394.9 334.4 414.5 C 300.79999999999995 434.1 263.9 444 224 444 C 184.10000000000002 444 147.2 434.2 113.5 414.4 C 79.8 394.7 53.1 368 33.5 334.4 C 13.899999999999999 300.79999999999995 4 263.9 4 224 C 4 184.10000000000002 13.8 147.2 33.6 113.5 C 53.400000000000006 79.80000000000001 80.1 53.1 113.6 33.5 C 147.1 13.899999999999999 184.1 4 224 4 C 263.9 4 300.8 13.8 334.5 33.6 C 368.2 53.400000000000006 394.9 80.1 414.5 113.6 C 434.1 147.1 444 184.1 444 224 Z"/></g><g><g transform="matrix(1,0,0,1,0,0)"><g transform="matrix(1,0,0,1,0,0)"><path fill="#a30000" stroke="none" id="_7A8CC827-96C0-4721-A8D2-538ADEA67BB3?shapeType=BORDER&amp;renderType=FILL" paint-order="stroke fill markers" d=" M 0 0 M 224 0 C 100.3 0 0 100.3 0 224 C 0 347.7 100.3 448 224 448 C 347.7 448 448 347.7 448 224 C 448 100.30000000000001 347.7 0 224 0 Z M 0 0 M 224 400 C 126.8 400 48 321.2 48 224 C 48 126.80000000000001 126.8 48 224 48 C 321.2 48 400 126.8 400 224 C 400 321.2 321.2 400 224 400 Z"/></g></g></g><g><g transform="matrix(1,0,0,1,0,0)"><g transform="matrix(1,0,0,1,0,0)"><path fill="#a30000" stroke="none" id="_7A8CC827-96C0-4721-A8D2-538ADEA67BB3undefined" paint-order="stroke fill markers" d=" M 0 0 M 320.2 220.7 C 320.2 238.1 315.9 254.2 307.3 268.9 C 298.7 283.59999999999997 287.1 295.29999999999995 272.40000000000003 303.79999999999995 C 257.70000000000005 312.4 241.60000000000002 316.69999999999993 224.20000000000005 316.69999999999993 C 206.80000000000007 316.69999999999993 190.70000000000005 312.3999999999999 176.00000000000006 303.79999999999995 C 161.30000000000007 295.19999999999993 149.70000000000005 283.59999999999997 141.10000000000005 268.9 C 132.50000000000006 254.2 128.30000000000004 238.09999999999997 128.30000000000004 220.7 C 128.30000000000004 203.3 132.60000000000005 187.2 141.20000000000005 172.5 C 149.80000000000004 157.8 161.40000000000003 146.1 176.10000000000005 137.5 C 190.80000000000004 128.9 206.90000000000006 124.7 224.30000000000007 124.7 C 241.70000000000007 124.7 257.80000000000007 129 272.50000000000006 137.6 C 287.20000000000005 146.2 298.90000000000003 157.9 307.40000000000003 172.5 C 316 187.2 320.2 203.3 320.2 220.7 Z"/></g></g></g></g><g transform="matrix(1,0,0,1,28,61)"/></g><g id="_A31B966B-6823-41DF-99E9-D7A1436D55A6" bpmn2nodeid="_A31B966B-6823-41DF-99E9-D7A1436D55A6" transform="matrix(1,0,0,1,126.5,156)"><g><path fill="none" stroke="none"/></g><g transform="matrix(0.125,0,0,0.125,0,0)"><g transform="matrix(1,0,0,1,0,0)"><path fill="#fef4ea" stroke="none" id="_A31B966B-6823-41DF-99E9-D7A1436D55A6?shapeType=BACKGROUND" paint-order="stroke fill markers" d=" M 0 0 M 224.4 4.3 C 216.4 4.3 208.4 7.3 202.3 13.399999999999999 L 13.5 202.2 C 1.3000000000000007 214.39999999999998 1.3000000000000007 234.2 13.5 246.39999999999998 L 202.2 435.09999999999997 C 208.29999999999998 441.2 216.39999999999998 444.2 224.29999999999998 444.2 C 232.2 444.2 240.29999999999998 441.2 246.39999999999998 435.09999999999997 L 435.09999999999997 246.39999999999998 C 447.29999999999995 234.2 447.29999999999995 214.39999999999998 435.09999999999997 202.2 L 246.5 13.4 C 240.4 7.3 232.4 4.3 224.4 4.3 L 224.4 4.3 Z"/></g><g><g transform="matrix(1,0,0,1,0,0)"><g transform="matrix(1,0,0,1,0,0)"><path fill="#ec7a08" stroke="none" id="_A31B966B-6823-41DF-99E9-D7A1436D55A6?shapeType=BORDER&amp;renderType=FILL" paint-order="stroke fill markers" d=" M 0 0 M 20.8 212.7 L 213.3 20.2 C 219.60000000000002 13.899999999999999 229.70000000000002 13.899999999999999 235.9 20.2 L 428.4 212.7 C 434.7 219 434.7 229.1 428.4 235.29999999999998 L 235.9 427.8 C 229.6 434.1 219.5 434.1 213.3 427.8 L 20.8 235.3 C 14.5 229.1 14.5 218.9 20.8 212.7 L 20.8 212.7 Z M 0 0 M 0 224 C 0 232.1 3.1 240.3 9.3 246.5 L 201.5 438.7 C 213.9 451.09999999999997 234.1 451.09999999999997 246.5 438.7 L 438.7 246.5 C 444.9 240.3 448 232.1 448 224 C 448 215.9 444.9 207.7 438.7 201.5 L 246.5 9.3 C 234.1 -3.0999999999999996 213.9 -3.0999999999999996 201.5 9.3 L 9.3 201.5 C 3.1 207.7 0 215.9 0 224 L 0 224 Z"/></g></g></g><g><g transform="matrix(1,0,0,1,0,0)"><g transform="matrix(1,0,0,1,0,0)"><path fill="#ec7a08" stroke="none" id="_A31B966B-6823-41DF-99E9-D7A1436D55A6undefined" paint-order="stroke fill markers" d=" M 0 0 M 312 212 L 312 236 C 312 239.4 310.9 242.1 308.5 244.5 C 306.1 246.9 303.4 248 300 248 L 248 248 L 248 300 C 248 303.4 246.9 306.1 244.5 308.5 C 242.1 310.9 239.4 312 236 312 L 212 312 C 208.6 312 205.9 310.9 203.5 308.5 C 201.1 306.1 200 303.4 200 300 L 200 248 L 148 248 C 144.6 248 141.9 246.9 139.5 244.5 C 137.1 242.1 136 239.4 136 236 L 136 212 C 136 208.6 137.1 205.9 139.5 203.5 C 141.9 201.1 144.6 200 148 200 L 200 200 L 200 148 C 200 144.6 201.1 141.9 203.5 139.5 C 205.9 137.1 208.6 136 212 136 L 236 136 C 239.4 136 242.1 137.1 244.5 139.5 C 246.9 141.9 248 144.6 248 148 L 248 200 L 300 200 C 303.4 200 306.1 201.1 308.5 203.5 C 310.9 205.9 312 208.6 312 212 Z"/></g></g></g></g><g transform="matrix(1,0,0,1,28,61)"/></g></g><g transform="matrix(1,0,0,1,535.5,187)"/><g transform="matrix(1,0,0,1,831,447)"/><g transform="matrix(1,0,0,1,782,225)"/><g transform="matrix(1,0,0,1,1000,248)"/><g transform="matrix(1,0,0,1,568,343.0617370605469)"/><g transform="matrix(1,0,0,1,1000,447)"/><g transform="matrix(1,0,0,1,662,343)"/><g id="_42829DA1-D401-472F-B9BB-8498FB3D40DB" bpmn2nodeid="_42829DA1-D401-472F-B9BB-8498FB3D40DB" transform="matrix(1,0,0,1,1628,320)"><g><path fill="none" stroke="none"/></g><g transform="matrix(1,0,0,1,0,0)"><path fill="#ffffff" stroke="none" id="_42829DA1-D401-472F-B9BB-8498FB3D40DB?shapeType=BACKGROUND" paint-order="stroke fill markers" d=" M 2 0 L 152 0 L 152 0 A 2 2 0 0 1 154 2 L 154 100 L 154 100 A 2 2 0 0 1 152 102 L 2 102 L 2 102 A 2 2 0 0 1 0 100 L 0 2 L 0 2.0000000000000004 A 2 2 0 0 1 1.9999999999999996 0 Z"/></g><g transform="matrix(1,0,0,1,0,0)"><path fill="none" stroke="#000000" id="_42829DA1-D401-472F-B9BB-8498FB3D40DB?shapeType=BORDER&amp;renderType=STROKE" paint-order="fill stroke markers" d=" M 2 0 L 152 0 L 152 0 A 2 2 0 0 1 154 2 L 154 100 L 154 100 A 2 2 0 0 1 152 102 L 2 102 L 2 102 A 2 2 0 0 1 0 100 L 0 2 L 0 2.0000000000000004 A 2 2 0 0 1 1.9999999999999996 0 Z" stroke-miterlimit="10" stroke-width="1.5" stroke-dasharray=""/></g><g><g transform="matrix(0.06,0,0,0.06,9.4,9.4)"><g transform="matrix(1,0,0,1,0,0)"><path fill="#393f44" stroke="none" id="_42829DA1-D401-472F-B9BB-8498FB3D40DBundefined" paint-order="stroke fill markers" d=" M 0 0 M 16 445.2101 C 16 440.86867 18.784312 431.12906000000004 22.001325 424.21728 C 35.767643 394.6402 77.282944 359.28049 129 333.08362 C 144.51625 325.22398 157.34689 319.96394 167.80739 317.17416 C 171.93153 316.07426 175.72913 314.41389999999996 176.5251 313.36265 C 178.89361 310.23449999999997 180.91404 302.90781 181.72673 294.5 L 182.5 286.5 L 178.50715 283.45457 C 166.30327 274.14645 154.2837 251.67767 148.03953 226.5 C 145.61086 216.70715 145.05603000000002 215.46246 142.98364 215.1579 C 141.70332000000002 214.96974 138.08302 212.24302 134.93852 209.09852 C 123.23314 197.39314000000002 116.89146000000001 177.37556 121.43982000000001 166.48978 C 123.00204000000001 162.75088 128.15457 159.00970999999998 131.75 159.00374 C 134.44781 158.99974 134.47062 158.60296 132.91375 138.78796 C 130.92658 113.4962 134.27903 92.26542699999999 143.13217 74.075676 C 152.23162 55.379835 167.56889 42.88208 189.04934 36.659507000000005 C 210.20334 30.531504000000005 237.79666 30.531504000000005 258.95065999999997 36.659507000000005 C 300.04166 48.562968000000005 318.95842 83.80634 314.95504999999997 141 C 314.31982999999997 150.075 313.62402 157.78816 313.4088 158.14035 C 313.19359 158.49254000000002 314.57532 159.07295000000002 316.47931 159.43014000000002 C 328.92867 161.76565000000002 330.98619 177.01772000000003 321.49638 196.62092 C 316.90319 206.10912000000002 309.35724 214.50797 304.81732 215.18517000000003 C 303.02259 215.45289000000002 302.2931 217.14618000000002 299.94277999999997 226.50000000000003 C 296.65948 239.56693 294.47402 245.30522000000002 287.94764 257.99534000000006 C 282.49071999999995 268.60596000000004 273.03466 281.10922000000005 268.10756999999995 284.2288300000001 L 264.87062 286.27832000000006 L 265.51815999999997 292.88916000000006 C 266.34490999999997 301.32961000000006 268.63948999999997 309.8706000000001 270.87735999999995 312.83742000000007 C 272.06735 314.4150200000001 275.00244999999995 315.78963000000005 280.0630699999999 317.13941000000005 C 291.06929999999994 320.0750300000001 303.61700999999994 325.27420000000006 320.99999999999994 334.10171 C 369.81470999999993 358.89104000000003 410.84810999999996 393.75797 425.03216 422.5 C 429.06985999999995 430.68183 432 440.23198 432 445.2101 L 432 448 L 224 448 L 16 448 L 16 445.2101 Z"/></g></g></g><g transform="matrix(1,0,0,1,4.039999999999992,13.680000000000007)"><g transform="matrix(0.04,0,0,0.04,63.36,69.12)"><g transform="matrix(1,0,0,1,0,0)"><path fill="none" stroke="none"/></g><g transform="matrix(1,0,0,1,0,0)"><path fill="none" stroke="none"/></g></g></g><g transform="matrix(1,0,0,1,38.875,28.5)"><text fill="#000000" stroke="none" font-family="Open Sans" font-size="12pt" font-style="normal" font-weight="normal" text-decoration="normal" x="38.125" y="12" text-anchor="middle" dominant-baseline="alphabetic">Complete </text><text fill="#000000" stroke="none" font-family="Open Sans" font-size="12pt" font-style="normal" font-weight="normal" text-decoration="normal" x="38.125" y="27" text-anchor="middle" dominant-baseline="alphabetic">Signature </text><text fill="#000000" stroke="none" font-family="Open Sans" font-size="12pt" font-style="normal" font-weight="normal" text-decoration="normal" x="38.125" y="42" text-anchor="middle" dominant-baseline="alphabetic">     Data     </text></g></g><g transform="matrix(1,0,0,1,1628,320)"/><g id="_6C6AF0A2-C8BF-485C-92F6-7029759627A5" bpmn2nodeid="_6C6AF0A2-C8BF-485C-92F6-7029759627A5"><g><path fill="none" stroke="#000000" paint-order="fill stroke markers" d=" M 229 371 L 308 371" stroke-miterlimit="10" stroke-dasharray=""/></g><g transform="matrix(1,0,0,1,229,371)"/><g transform="matrix(6.123233995736766e-17,1,-1,6.123233995736766e-17,323,366)"><path fill="#000000" stroke="#000000" paint-order="fill stroke markers" d=" M 10 15 L 0 15 L 5 0 Z" stroke-miterlimit="10" stroke-dasharray=""/></g><g transform="matrix(1,0,0,1,229,361)"/></g><g id="_A2EFC17A-F605-4999-AA5B-FCAA931B62D0" bpmn2nodeid="_A2EFC17A-F605-4999-AA5B-FCAA931B62D0"><g><path fill="none" stroke="#000000" paint-order="fill stroke markers" d=" M 477 372.4206642066421 L 520.5025524181794 373.22329432505865" stroke-miterlimit="10" stroke-dasharray=""/></g><g transform="matrix(1,0,0,1,477,372.4206642066421)"/><g transform="matrix(-0.018447044996090244,0.9998298387880371,-0.9998298387880371,-0.018447044996090244,535.5922352249804,368.5008508060598)"><path fill="#000000" stroke="#000000" paint-order="fill stroke markers" d=" M 10 15 L 0 15 L 5 0 Z" stroke-miterlimit="10" stroke-dasharray=""/></g><g transform="matrix(1,0,0,1,477.1844704499609,362.96203371544067)"/></g><g id="_9A611AAA-4943-4C5B-A8F1-06231B6D2ED3" bpmn2nodeid="_9A611AAA-4943-4C5B-A8F1-06231B6D2ED3"><g><path fill="none" stroke="#000000" paint-order="fill stroke markers" d=" M 1156 371.44943820224717 L 1209.0003276190744 371.09913861454675" stroke-miterlimit="10" stroke-dasharray=""/></g><g transform="matrix(1,0,0,1,1156,371.44943820224717)"/><g transform="matrix(0.006609240969783115,0.9999781587283811,-0.9999781587283811,0.006609240969783115,1223.966953795151,366.0001092063581)"><path fill="#000000" stroke="#000000" paint-order="fill stroke markers" d=" M 10 15 L 0 15 L 5 0 Z" stroke-miterlimit="10" stroke-dasharray=""/></g><g transform="matrix(1,0,0,1,1156.0660924096978,361.2249375138398)"/></g><g id="_289D4534-80F6-4F32-9C77-A2AFF7C10A26" bpmn2nodeid="_289D4534-80F6-4F32-9C77-A2AFF7C10A26"><g><path fill="none" stroke="#000000" paint-order="fill stroke markers" d=" M 1378 371 L 1438 371" stroke-miterlimit="10" stroke-dasharray=""/></g><g transform="matrix(1,0,0,1,1378,371)"/><g transform="matrix(6.123233995736766e-17,1,-1,6.123233995736766e-17,1453,366)"><path fill="#000000" stroke="#000000" paint-order="fill stroke markers" d=" M 10 15 L 0 15 L 5 0 Z" stroke-miterlimit="10" stroke-dasharray=""/></g><g transform="matrix(1,0,0,1,1378,361)"/></g><g id="_5CD08ED1-42D3-4741-BC11-9D7D5E7136B2" bpmn2nodeid="_5CD08ED1-42D3-4741-BC11-9D7D5E7136B2"><g><path fill="none" stroke="#000000" paint-order="fill stroke markers" d=" M 1509 371 L 1613 371" stroke-miterlimit="10" stroke-dasharray=""/></g><g transform="matrix(1,0,0,1,1509,371)"/><g transform="matrix(6.123233995736766e-17,1,-1,6.123233995736766e-17,1628,366)"><path fill="#000000" stroke="#000000" paint-order="fill stroke markers" d=" M 10 15 L 0 15 L 5 0 Z" stroke-miterlimit="10" stroke-dasharray=""/></g><g transform="matrix(1,0,0,1,1509,350)"><text fill="#000000" stroke="none" font-family="Open Sans" font-size="10pt" font-style="normal" font-weight="normal" text-decoration="normal" x="0" y="8.8" text-anchor="start" dominant-baseline="alphabetic">Manual                     </text></g></g><g id="_F63506E4-D1FC-4B97-8DB9-DD57502E508E" bpmn2nodeid="_F63506E4-D1FC-4B97-8DB9-DD57502E508E"><g><path fill="none" stroke="#000000" paint-order="fill stroke markers" d=" M 1782 371 L 1855 371" stroke-miterlimit="10" stroke-dasharray=""/></g><g transform="matrix(1,0,0,1,1782,371)"/><g transform="matrix(6.123233995736766e-17,1,-1,6.123233995736766e-17,1870,366)"><path fill="#000000" stroke="#000000" paint-order="fill stroke markers" d=" M 10 15 L 0 15 L 5 0 Z" stroke-miterlimit="10" stroke-dasharray=""/></g><g transform="matrix(1,0,0,1,1782,361)"/></g><g id="_65A5F8CD-975C-420B-A4B6-A222820A74BA" bpmn2nodeid="_65A5F8CD-975C-420B-A4B6-A222820A74BA"><g><path fill="none" stroke="#000000" paint-order="fill stroke markers" d=" M 1926 371 L 1985 371" stroke-miterlimit="10" stroke-dasharray=""/></g><g transform="matrix(1,0,0,1,1926,371)"/><g transform="matrix(6.123233995736766e-17,1,-1,6.123233995736766e-17,2000,366)"><path fill="#000000" stroke="#000000" paint-order="fill stroke markers" d=" M 10 15 L 0 15 L 5 0 Z" stroke-miterlimit="10" stroke-dasharray=""/></g><g transform="matrix(1,0,0,1,1926,361)"/></g><g id="_BCC51C33-6937-4202-AB2F-7502CB9F65BD" bpmn2nodeid="_BCC51C33-6937-4202-AB2F-7502CB9F65BD"><g><path fill="none" stroke="#000000" paint-order="fill stroke markers" d=" M 1481 343 L 1481 253 L 1898 253 L 1898 328" stroke-miterlimit="10" stroke-dasharray=""/></g><g transform="matrix(1,0,0,1,1481,343)"/><g transform="matrix(-1,1.2246467991473532e-16,-1.2246467991473532e-16,-1,1903,343)"><path fill="#000000" stroke="#000000" paint-order="fill stroke markers" d=" M 10 15 L 0 15 L 5 0 Z" stroke-miterlimit="10" stroke-dasharray=""/></g><g transform="matrix(1,0,0,1,1491,287)"><text fill="#000000" stroke="none" font-family="Open Sans" font-size="10pt" font-style="normal" font-weight="normal" text-decoration="normal" x="0" y="8.8" text-anchor="start" dominant-baseline="alphabetic">Digital               </text></g></g><g id="_9432B3BC-4682-43BA-9A9A-B6FF063DF38A" bpmn2nodeid="_9432B3BC-4682-43BA-9A9A-B6FF063DF38A"><g><path fill="none" stroke="#000000" paint-order="fill stroke markers" d=" M 624 371.0355455803149 L 647.0000065624348 371.01403114398573" stroke-miterlimit="10" stroke-dasharray=""/></g><g transform="matrix(1,0,0,1,624,371.0355455803149)"/><g transform="matrix(0.0009354095990489601,0.9999995625043453,-0.9999995625043453,0.0009354095990489601,661.9953229520047,366.0000021874783)"><path fill="#000000" stroke="#000000" paint-order="fill stroke markers" d=" M 10 15 L 0 15 L 5 0 Z" stroke-miterlimit="10" stroke-dasharray=""/></g><g transform="matrix(1,0,0,1,624.0093540959905,361.017777165114)"/></g><g id="_B04FB1E9-0985-497A-8E52-9CA90B10A10A" bpmn2nodeid="_B04FB1E9-0985-497A-8E52-9CA90B10A10A"><g><path fill="none" stroke="#000000" paint-order="fill stroke markers" d=" M 690 399 L 690 475 L 816 475" stroke-miterlimit="10" stroke-dasharray=""/></g><g transform="matrix(1,0,0,1,690,399)"/><g transform="matrix(6.123233995736766e-17,1,-1,6.123233995736766e-17,831,470)"><path fill="#000000" stroke="#000000" paint-order="fill stroke markers" d=" M 10 15 L 0 15 L 5 0 Z" stroke-miterlimit="10" stroke-dasharray=""/></g><g transform="matrix(1,0,0,1,700,437)"/></g><g id="_055F2164-E4B2-4E24-928D-9BEC2C7E1862" bpmn2nodeid="_055F2164-E4B2-4E24-928D-9BEC2C7E1862"><g><path fill="none" stroke="#000000" paint-order="fill stroke markers" d=" M 887 475 L 985 475" stroke-miterlimit="10" stroke-dasharray=""/></g><g transform="matrix(1,0,0,1,887,475)"/><g transform="matrix(6.123233995736766e-17,1,-1,6.123233995736766e-17,1000,470)"><path fill="#000000" stroke="#000000" paint-order="fill stroke markers" d=" M 10 15 L 0 15 L 5 0 Z" stroke-miterlimit="10" stroke-dasharray=""/></g><g transform="matrix(1,0,0,1,887,465)"/></g><g id="_28D70F76-5529-4DC0-A8FA-6D80FACC128B" bpmn2nodeid="_28D70F76-5529-4DC0-A8FA-6D80FACC128B"><g><path fill="none" stroke="#000000" paint-order="fill stroke markers" d=" M 690 343 L 690 276 L 767 276" stroke-miterlimit="10" stroke-dasharray=""/></g><g transform="matrix(1,0,0,1,690,343)"/><g transform="matrix(6.123233995736766e-17,1,-1,6.123233995736766e-17,782,271)"><path fill="#000000" stroke="#000000" paint-order="fill stroke markers" d=" M 10 15 L 0 15 L 5 0 Z" stroke-miterlimit="10" stroke-dasharray=""/></g><g transform="matrix(1,0,0,1,700,309.5)"/></g><g id="_BD914AAE-5220-4E2C-A27F-EE33B6487A81" bpmn2nodeid="_BD914AAE-5220-4E2C-A27F-EE33B6487A81"><g><path fill="none" stroke="#000000" paint-order="fill stroke markers" d=" M 936 276 L 985 276" stroke-miterlimit="10" stroke-dasharray=""/></g><g transform="matrix(1,0,0,1,936,276)"/><g transform="matrix(6.123233995736766e-17,1,-1,6.123233995736766e-17,1000,271)"><path fill="#000000" stroke="#000000" paint-order="fill stroke markers" d=" M 10 15 L 0 15 L 5 0 Z" stroke-miterlimit="10" stroke-dasharray=""/></g><g transform="matrix(1,0,0,1,936,266)"/></g><g id="_9776EEBA-94B2-45BD-A74C-401BAB15AFE5" bpmn2nodeid="_9776EEBA-94B2-45BD-A74C-401BAB15AFE5"><g><path fill="none" stroke="#000000" paint-order="fill stroke markers" d=" M 239 728 L 537 728" stroke-miterlimit="10" stroke-dasharray=""/></g><g transform="matrix(1,0,0,1,239,728)"/><g transform="matrix(6.123233995736766e-17,1,-1,6.123233995736766e-17,552,723)"><path fill="#000000" stroke="#000000" paint-order="fill stroke markers" d=" M 10 15 L 0 15 L 5 0 Z" stroke-miterlimit="10" stroke-dasharray=""/></g><g transform="matrix(1,0,0,1,295.5,718)"/></g></g></g></svg>